<svg width="35" height="35" viewBox="0 0 35 35" fill="none" xmlns="http://www.w3.org/2000/svg">
<path d="M29.2373 17.1523L13.9248 33.5586C13.7625 33.7318 13.5483 33.8475 13.3146 33.8882C13.0808 33.929 12.8401 33.8926 12.6288 33.7845C12.4175 33.6765 12.247 33.5027 12.1432 33.2893C12.0394 33.0759 12.0077 32.8345 12.0531 32.6016L14.0574 22.576L6.17833 19.6174C6.00911 19.5541 5.85821 19.4499 5.73911 19.314C5.62001 19.1782 5.53641 19.0149 5.49578 18.8389C5.45516 18.6628 5.45877 18.4795 5.50631 18.3052C5.55384 18.1309 5.64381 17.9711 5.76817 17.84L21.0807 1.43378C21.2429 1.2606 21.4571 1.14491 21.6909 1.10415C21.9247 1.06338 22.1654 1.09977 22.3767 1.20781C22.588 1.31585 22.7585 1.48969 22.8623 1.70309C22.9661 1.91649 22.9977 2.15787 22.9524 2.39081L20.9426 12.4273L28.8217 15.3818C28.9897 15.4455 29.1393 15.5497 29.2575 15.685C29.3757 15.8203 29.4587 15.9826 29.4993 16.1576C29.5398 16.3326 29.5366 16.5149 29.49 16.6884C29.4433 16.8619 29.3547 17.0212 29.2318 17.1523H29.2373Z" fill="white"/>
</svg>
