<svg width="35" height="35" viewBox="0 0 35 35" fill="none" xmlns="http://www.w3.org/2000/svg">
<path d="M13.6718 28.437C13.6718 28.8721 13.4989 29.2894 13.1912 29.5971C12.8836 29.9048 12.4663 30.0776 12.0311 30.0776H5.46863C4.79687 30.0772 4.13706 29.8999 3.55547 29.5638C2.97388 29.2276 2.49098 28.7443 2.1553 28.1624C1.81961 27.5806 1.64295 26.9206 1.64307 26.2488C1.64318 25.5771 1.82006 24.9172 2.15594 24.3354L6.18231 17.3792L5.53152 17.5528C5.32184 17.6136 5.10214 17.6319 4.88529 17.6067C4.66843 17.5814 4.4588 17.5132 4.26866 17.4059C4.07852 17.2986 3.91171 17.1545 3.77799 16.9819C3.64427 16.8094 3.54633 16.6118 3.48992 16.4009C3.43352 16.19 3.41976 15.97 3.44948 15.7537C3.47919 15.5374 3.55177 15.3293 3.66297 15.1414C3.77416 14.9535 3.92173 14.7897 4.09703 14.6596C4.27234 14.5295 4.47184 14.4357 4.68387 14.3837L9.16414 13.1846C9.58421 13.0723 10.0317 13.1313 10.4083 13.3487C10.7849 13.5661 11.0598 13.9241 11.1725 14.344L12.3743 18.8243C12.4372 19.0345 12.4572 19.2551 12.4333 19.4731C12.4094 19.6912 12.342 19.9023 12.2351 20.0938C12.1283 20.2854 11.984 20.4536 11.811 20.5884C11.638 20.7233 11.4397 20.822 11.2278 20.8789C11.016 20.9358 10.7949 20.9496 10.5776 20.9195C10.3603 20.8895 10.1512 20.8161 9.96276 20.7038C9.7743 20.5916 9.61028 20.4426 9.48039 20.2659C9.3505 20.0891 9.25737 19.8881 9.20652 19.6747L9.03426 19.0034L5.00106 25.976C4.9533 26.0587 4.92804 26.1525 4.92777 26.248C4.9275 26.3435 4.95224 26.4374 4.99953 26.5203C5.04682 26.6033 5.115 26.6724 5.1973 26.7208C5.2796 26.7693 5.37315 26.7953 5.46863 26.7964H12.0311C12.4663 26.7964 12.8836 26.9692 13.1912 27.2769C13.4989 27.5846 13.6718 28.0019 13.6718 28.437ZM17.4999 4.92136C17.5961 4.91958 17.6911 4.9441 17.7744 4.99229C17.8578 5.04047 17.9264 5.11049 17.9729 5.19479L21.9993 12.1497L21.3499 11.976C21.139 11.9118 20.9174 11.8908 20.6982 11.9141C20.4791 11.9374 20.2669 12.0047 20.0742 12.1118C19.8816 12.219 19.7126 12.3638 19.5772 12.5378C19.4418 12.7117 19.3429 12.9111 19.2863 13.1241C19.2297 13.3371 19.2166 13.5594 19.2477 13.7776C19.2789 13.9958 19.3538 14.2054 19.4678 14.3941C19.5818 14.5827 19.7326 14.7464 19.9113 14.8755C20.0899 15.0045 20.2928 15.0963 20.5077 15.1452L24.988 16.3469C25.408 16.4593 25.8555 16.4003 26.2321 16.1829C26.6087 15.9655 26.8836 15.6075 26.9964 15.1876L28.1913 10.7046C28.3041 10.2839 28.2451 9.83576 28.0274 9.4586C27.9197 9.27184 27.7761 9.10815 27.6051 8.97686C27.434 8.84558 27.2388 8.74926 27.0305 8.69343C26.6099 8.58066 26.1617 8.6396 25.7846 8.85728C25.4074 9.07496 25.1322 9.43355 25.0194 9.85417L24.8403 10.5186L20.8126 3.55417C20.4762 2.97342 19.9932 2.49129 19.4117 2.15613C18.8303 1.82096 18.171 1.64453 17.4999 1.64453C16.8288 1.64453 16.1695 1.82096 15.588 2.15613C15.0066 2.49129 14.5235 2.97342 14.1872 3.55417L11.0208 9.02292C10.9046 9.20968 10.8272 9.41789 10.7931 9.63517C10.7591 9.85245 10.769 10.0744 10.8224 10.2877C10.8758 10.5011 10.9716 10.7015 11.104 10.8771C11.2364 11.0527 11.4028 11.1999 11.5932 11.3099C11.7836 11.4199 11.9943 11.4906 12.2125 11.5176C12.4308 11.5446 12.6523 11.5274 12.8638 11.4671C13.0753 11.4068 13.2725 11.3046 13.4437 11.1666C13.6149 11.0285 13.7566 10.8575 13.8604 10.6635L17.0268 5.19479C17.0733 5.11049 17.142 5.04047 17.2253 4.99229C17.3087 4.9441 17.4036 4.91958 17.4999 4.92136ZM32.8384 24.3354L29.6747 18.8667C29.5709 18.6728 29.4292 18.5017 29.258 18.3637C29.0868 18.2256 28.8895 18.1234 28.678 18.0631C28.4665 18.0028 28.2451 17.9856 28.0268 18.0127C27.8085 18.0397 27.5979 18.1103 27.4075 18.2203C27.217 18.3303 27.0507 18.4775 26.9183 18.6531C26.7858 18.8287 26.6901 19.0292 26.6367 19.2425C26.5833 19.4559 26.5733 19.6778 26.6074 19.895C26.6415 20.1123 26.7189 20.3205 26.835 20.5073L29.9987 25.976C30.0467 26.0591 30.072 26.1534 30.072 26.2493C30.072 26.3453 30.0468 26.4396 29.9988 26.5227C29.9509 26.6058 29.882 26.6748 29.7989 26.7229C29.7158 26.7709 29.6216 26.7963 29.5257 26.7964H21.4647L21.9446 26.3165C22.0972 26.1639 22.2183 25.9827 22.3009 25.7833C22.3835 25.5839 22.426 25.3702 22.426 25.1544C22.426 24.9385 22.3835 24.7248 22.3009 24.5254C22.2183 24.326 22.0972 24.1449 21.9446 23.9923C21.792 23.8396 21.6108 23.7186 21.4114 23.636C21.212 23.5534 20.9983 23.5109 20.7825 23.5109C20.5667 23.5109 20.353 23.5534 20.1536 23.636C19.9542 23.7186 19.773 23.8396 19.6204 23.9923L16.3391 27.2735C16.1862 27.4259 16.0648 27.607 15.982 27.8065C15.8992 28.0059 15.8566 28.2197 15.8566 28.4356C15.8566 28.6515 15.8992 28.8653 15.982 29.0648C16.0648 29.2642 16.1862 29.4453 16.3391 29.5977L19.6204 32.879C19.773 33.0316 19.9542 33.1526 20.1536 33.2352C20.353 33.3178 20.5667 33.3603 20.7825 33.3603C20.9983 33.3603 21.212 33.3178 21.4114 33.2352C21.6108 33.1526 21.792 33.0316 21.9446 32.879C22.0972 32.7264 22.2183 32.5452 22.3009 32.3458C22.3835 32.1464 22.426 31.9327 22.426 31.7169C22.426 31.501 22.3835 31.2873 22.3009 31.0879C22.2183 30.8885 22.0972 30.7074 21.9446 30.5548L21.4647 30.0776H29.5311C30.2029 30.0772 30.8627 29.8999 31.4443 29.5638C32.0259 29.2276 32.5088 28.7443 32.8445 28.1624C33.1802 27.5806 33.3568 26.9206 33.3567 26.2488C33.3566 25.5771 33.1797 24.9172 32.8438 24.3354H32.8384Z" fill="white"/>
</svg>
