<svg width="35" height="35" viewBox="0 0 35 35" fill="none" xmlns="http://www.w3.org/2000/svg">
<path d="M29.5312 6.5625H24.6094V4.92188C24.6094 3.90659 24.2061 2.93289 23.4881 2.21498C22.7702 1.49707 21.7965 1.09375 20.7812 1.09375H14.2188C13.2035 1.09375 12.2298 1.49707 11.5119 2.21498C10.7939 2.93289 10.3906 3.90659 10.3906 4.92188V6.5625H5.46875C5.03363 6.5625 4.61633 6.73535 4.30865 7.04303C4.00098 7.3507 3.82812 7.768 3.82812 8.20312C3.82812 8.63825 4.00098 9.05555 4.30865 9.36322C4.61633 9.6709 5.03363 9.84375 5.46875 9.84375H6.01562V28.4375C6.01562 29.1627 6.30371 29.8582 6.8165 30.371C7.3293 30.8838 8.0248 31.1719 8.75 31.1719H26.25C26.9752 31.1719 27.6707 30.8838 28.1835 30.371C28.6963 29.8582 28.9844 29.1627 28.9844 28.4375V9.84375H29.5312C29.9664 9.84375 30.3837 9.6709 30.6913 9.36322C30.999 9.05555 31.1719 8.63825 31.1719 8.20312C31.1719 7.768 30.999 7.3507 30.6913 7.04303C30.3837 6.73535 29.9664 6.5625 29.5312 6.5625ZM13.6719 4.92188C13.6719 4.77683 13.7295 4.63774 13.8321 4.53518C13.9346 4.43262 14.0737 4.375 14.2188 4.375H20.7812C20.9263 4.375 21.0654 4.43262 21.1679 4.53518C21.2705 4.63774 21.3281 4.77683 21.3281 4.92188V6.5625H13.6719V4.92188ZM25.7031 27.8906H9.29688V9.84375H25.7031V27.8906ZM15.8594 14.2188V22.9688C15.8594 23.4039 15.6865 23.8212 15.3788 24.1288C15.0712 24.4365 14.6539 24.6094 14.2188 24.6094C13.7836 24.6094 13.3663 24.4365 13.0587 24.1288C12.751 23.8212 12.5781 23.4039 12.5781 22.9688V14.2188C12.5781 13.7836 12.751 13.3663 13.0587 13.0587C13.3663 12.751 13.7836 12.5781 14.2188 12.5781C14.6539 12.5781 15.0712 12.751 15.3788 13.0587C15.6865 13.3663 15.8594 13.7836 15.8594 14.2188ZM22.4219 14.2188V22.9688C22.4219 23.4039 22.249 23.8212 21.9413 24.1288C21.6337 24.4365 21.2164 24.6094 20.7812 24.6094C20.3461 24.6094 19.9288 24.4365 19.6212 24.1288C19.3135 23.8212 19.1406 23.4039 19.1406 22.9688V14.2188C19.1406 13.7836 19.3135 13.3663 19.6212 13.0587C19.9288 12.751 20.3461 12.5781 20.7812 12.5781C21.2164 12.5781 21.6337 12.751 21.9413 13.0587C22.249 13.3663 22.4219 13.7836 22.4219 14.2188Z" fill="white"/>
</svg>
